<mxfile host="app.diagrams.net" modified="2024-04-26T05:27:04.411Z" agent="Mozilla/5.0 (Macintosh; Intel Mac OS X 10_15_7) AppleWebKit/537.36 (KHTML, like Gecko) Chrome/124.0.0.0 Safari/537.36" etag="O6n0583zxT3pPI_oASPf" version="24.3.0" type="github" pages="2">
  <diagram id="kgpKYQtTHZ0yAKxKKP6v" name="第一版">
    <mxGraphModel dx="979" dy="488" grid="1" gridSize="10" guides="1" tooltips="1" connect="1" arrows="1" fold="1" page="1" pageScale="1" pageWidth="850" pageHeight="1100" math="0" shadow="0">
      <root>
        <mxCell id="0" />
        <mxCell id="1" parent="0" />
        <mxCell id="3nuBFxr9cyL0pnOWT2aG-1" value="治疗订单返修流程第一版" style="shape=table;childLayout=tableLayout;startSize=40;collapsible=0;recursiveResize=0;expand=0;fillColor=none;fontStyle=1" parent="1" vertex="1">
          <mxGeometry x="300" y="90" width="870.0000000000002" height="449" as="geometry" />
        </mxCell>
        <mxCell id="3nuBFxr9cyL0pnOWT2aG-3" value="大洋彼岸的美国医生" style="shape=tableRow;horizontal=0;swimlaneHead=0;swimlaneBody=0;top=0;left=0;bottom=0;right=0;fillColor=none;points=[[0,0.5],[1,0.5]];portConstraint=eastwest;startSize=40;collapsible=0;recursiveResize=0;expand=0;fontStyle=1;" parent="3nuBFxr9cyL0pnOWT2aG-1" vertex="1">
          <mxGeometry y="40" width="870.0000000000002" height="160" as="geometry" />
        </mxCell>
        <mxCell id="3nuBFxr9cyL0pnOWT2aG-4" value="美国平台" style="swimlane;swimlaneHead=0;swimlaneBody=0;connectable=0;fillColor=none;startSize=40;collapsible=0;recursiveResize=0;expand=0;fontStyle=1;" parent="3nuBFxr9cyL0pnOWT2aG-3" vertex="1">
          <mxGeometry x="40" width="130" height="160" as="geometry">
            <mxRectangle width="130" height="160" as="alternateBounds" />
          </mxGeometry>
        </mxCell>
        <mxCell id="haAIxIRTAm43gvG-HOPw-50" style="edgeStyle=orthogonalEdgeStyle;rounded=0;orthogonalLoop=1;jettySize=auto;html=1;exitX=0.5;exitY=1;exitDx=0;exitDy=0;entryX=0.5;entryY=0;entryDx=0;entryDy=0;" edge="1" parent="3nuBFxr9cyL0pnOWT2aG-4" source="3nuBFxr9cyL0pnOWT2aG-6" target="haAIxIRTAm43gvG-HOPw-1">
          <mxGeometry relative="1" as="geometry" />
        </mxCell>
        <mxCell id="3nuBFxr9cyL0pnOWT2aG-6" value="输入返修理由" style="rounded=1;whiteSpace=wrap;html=1;arcSize=50;" parent="3nuBFxr9cyL0pnOWT2aG-4" vertex="1">
          <mxGeometry x="20" y="50" width="90" height="30" as="geometry" />
        </mxCell>
        <mxCell id="haAIxIRTAm43gvG-HOPw-1" value="提交返修" style="rounded=0;whiteSpace=wrap;html=1;" vertex="1" parent="3nuBFxr9cyL0pnOWT2aG-4">
          <mxGeometry x="20" y="110" width="90" height="30" as="geometry" />
        </mxCell>
        <mxCell id="3nuBFxr9cyL0pnOWT2aG-8" value="MoonsmileERP" style="swimlane;swimlaneHead=0;swimlaneBody=0;connectable=0;fillColor=none;startSize=40;collapsible=0;recursiveResize=0;expand=0;fontStyle=1;" parent="3nuBFxr9cyL0pnOWT2aG-3" vertex="1">
          <mxGeometry x="170" width="700" height="160" as="geometry">
            <mxRectangle width="700" height="160" as="alternateBounds" />
          </mxGeometry>
        </mxCell>
        <mxCell id="3nuBFxr9cyL0pnOWT2aG-15" value="客服" style="shape=tableRow;horizontal=0;swimlaneHead=0;swimlaneBody=0;top=0;left=0;bottom=0;right=0;fillColor=none;points=[[0,0.5],[1,0.5]];portConstraint=eastwest;startSize=40;collapsible=0;recursiveResize=0;expand=0;fontStyle=1;" parent="3nuBFxr9cyL0pnOWT2aG-1" vertex="1">
          <mxGeometry y="200" width="870.0000000000002" height="70" as="geometry" />
        </mxCell>
        <mxCell id="3nuBFxr9cyL0pnOWT2aG-16" value="" style="swimlane;swimlaneHead=0;swimlaneBody=0;connectable=0;fillColor=none;startSize=0;collapsible=0;recursiveResize=0;expand=0;fontStyle=1;" parent="3nuBFxr9cyL0pnOWT2aG-15" vertex="1">
          <mxGeometry x="40" width="130" height="70" as="geometry">
            <mxRectangle width="130" height="70" as="alternateBounds" />
          </mxGeometry>
        </mxCell>
        <mxCell id="3nuBFxr9cyL0pnOWT2aG-18" value="" style="swimlane;swimlaneHead=0;swimlaneBody=0;connectable=0;fillColor=none;startSize=0;collapsible=0;recursiveResize=0;expand=0;fontStyle=1;" parent="3nuBFxr9cyL0pnOWT2aG-15" vertex="1">
          <mxGeometry x="170" width="700" height="70" as="geometry">
            <mxRectangle width="700" height="70" as="alternateBounds" />
          </mxGeometry>
        </mxCell>
        <mxCell id="3nuBFxr9cyL0pnOWT2aG-17" value="翻译返修要求" style="rounded=0;whiteSpace=wrap;html=1;" parent="3nuBFxr9cyL0pnOWT2aG-18" vertex="1">
          <mxGeometry x="167.5" y="20" width="85" height="33.5" as="geometry" />
        </mxCell>
        <mxCell id="haAIxIRTAm43gvG-HOPw-42" value="交付设计给医生" style="rounded=0;whiteSpace=wrap;html=1;" vertex="1" parent="3nuBFxr9cyL0pnOWT2aG-18">
          <mxGeometry x="560" y="20" width="120" height="30" as="geometry" />
        </mxCell>
        <mxCell id="haAIxIRTAm43gvG-HOPw-13" value="设计师" style="shape=tableRow;horizontal=0;swimlaneHead=0;swimlaneBody=0;top=0;left=0;bottom=0;right=0;fillColor=none;points=[[0,0.5],[1,0.5]];portConstraint=eastwest;startSize=40;collapsible=0;recursiveResize=0;expand=0;fontStyle=1;" vertex="1" parent="3nuBFxr9cyL0pnOWT2aG-1">
          <mxGeometry y="270" width="870.0000000000002" height="97" as="geometry" />
        </mxCell>
        <mxCell id="haAIxIRTAm43gvG-HOPw-14" style="swimlane;swimlaneHead=0;swimlaneBody=0;connectable=0;fillColor=none;startSize=0;collapsible=0;recursiveResize=0;expand=0;fontStyle=1;" vertex="1" parent="haAIxIRTAm43gvG-HOPw-13">
          <mxGeometry x="40" width="130" height="97" as="geometry">
            <mxRectangle width="130" height="97" as="alternateBounds" />
          </mxGeometry>
        </mxCell>
        <mxCell id="haAIxIRTAm43gvG-HOPw-15" style="swimlane;swimlaneHead=0;swimlaneBody=0;connectable=0;fillColor=none;startSize=0;collapsible=0;recursiveResize=0;expand=0;fontStyle=1;" vertex="1" parent="haAIxIRTAm43gvG-HOPw-13">
          <mxGeometry x="170" width="700" height="97" as="geometry">
            <mxRectangle width="700" height="97" as="alternateBounds" />
          </mxGeometry>
        </mxCell>
        <mxCell id="haAIxIRTAm43gvG-HOPw-22" style="edgeStyle=orthogonalEdgeStyle;rounded=0;orthogonalLoop=1;jettySize=auto;html=1;exitX=1;exitY=0.5;exitDx=0;exitDy=0;entryX=0;entryY=0.5;entryDx=0;entryDy=0;" edge="1" parent="haAIxIRTAm43gvG-HOPw-15" source="haAIxIRTAm43gvG-HOPw-17" target="haAIxIRTAm43gvG-HOPw-21">
          <mxGeometry relative="1" as="geometry" />
        </mxCell>
        <mxCell id="haAIxIRTAm43gvG-HOPw-17" value="根据返修要求开始返修" style="rounded=0;whiteSpace=wrap;html=1;" vertex="1" parent="haAIxIRTAm43gvG-HOPw-15">
          <mxGeometry x="140" y="26.75" width="140" height="31.5" as="geometry" />
        </mxCell>
        <mxCell id="haAIxIRTAm43gvG-HOPw-24" style="edgeStyle=orthogonalEdgeStyle;rounded=0;orthogonalLoop=1;jettySize=auto;html=1;exitX=1;exitY=0.5;exitDx=0;exitDy=0;entryX=0;entryY=0.5;entryDx=0;entryDy=0;" edge="1" parent="haAIxIRTAm43gvG-HOPw-15" source="haAIxIRTAm43gvG-HOPw-21" target="haAIxIRTAm43gvG-HOPw-23">
          <mxGeometry relative="1" as="geometry" />
        </mxCell>
        <mxCell id="haAIxIRTAm43gvG-HOPw-21" value="提交设计文件" style="rounded=0;whiteSpace=wrap;html=1;" vertex="1" parent="haAIxIRTAm43gvG-HOPw-15">
          <mxGeometry x="310" y="28.25" width="100" height="30" as="geometry" />
        </mxCell>
        <mxCell id="haAIxIRTAm43gvG-HOPw-23" value="提交质检" style="rounded=0;whiteSpace=wrap;html=1;" vertex="1" parent="haAIxIRTAm43gvG-HOPw-15">
          <mxGeometry x="460" y="25.88" width="100" height="34.75" as="geometry" />
        </mxCell>
        <mxCell id="haAIxIRTAm43gvG-HOPw-46" style="edgeStyle=orthogonalEdgeStyle;rounded=0;orthogonalLoop=1;jettySize=auto;html=1;exitX=0.75;exitY=1;exitDx=0;exitDy=0;entryX=0.5;entryY=1;entryDx=0;entryDy=0;" edge="1" parent="haAIxIRTAm43gvG-HOPw-15" source="haAIxIRTAm43gvG-HOPw-38" target="haAIxIRTAm43gvG-HOPw-21">
          <mxGeometry relative="1" as="geometry" />
        </mxCell>
        <mxCell id="haAIxIRTAm43gvG-HOPw-38" value="根据质检要求修改" style="rounded=0;whiteSpace=wrap;html=1;" vertex="1" parent="haAIxIRTAm43gvG-HOPw-15">
          <mxGeometry x="40" y="26.75" width="60" height="33.25" as="geometry" />
        </mxCell>
        <mxCell id="haAIxIRTAm43gvG-HOPw-28" value="质检" style="shape=tableRow;horizontal=0;swimlaneHead=0;swimlaneBody=0;top=0;left=0;bottom=0;right=0;fillColor=none;points=[[0,0.5],[1,0.5]];portConstraint=eastwest;startSize=40;collapsible=0;recursiveResize=0;expand=0;fontStyle=1;" vertex="1" parent="3nuBFxr9cyL0pnOWT2aG-1">
          <mxGeometry y="367" width="870.0000000000002" height="82" as="geometry" />
        </mxCell>
        <mxCell id="haAIxIRTAm43gvG-HOPw-29" style="swimlane;swimlaneHead=0;swimlaneBody=0;connectable=0;fillColor=none;startSize=0;collapsible=0;recursiveResize=0;expand=0;fontStyle=1;" vertex="1" parent="haAIxIRTAm43gvG-HOPw-28">
          <mxGeometry x="40" width="130" height="82" as="geometry">
            <mxRectangle width="130" height="82" as="alternateBounds" />
          </mxGeometry>
        </mxCell>
        <mxCell id="haAIxIRTAm43gvG-HOPw-30" style="swimlane;swimlaneHead=0;swimlaneBody=0;connectable=0;fillColor=none;startSize=0;collapsible=0;recursiveResize=0;expand=0;fontStyle=1;" vertex="1" parent="haAIxIRTAm43gvG-HOPw-28">
          <mxGeometry x="170" width="700" height="82" as="geometry">
            <mxRectangle width="700" height="82" as="alternateBounds" />
          </mxGeometry>
        </mxCell>
        <mxCell id="8FANiOVnLKe2f4nZrA_B-1" value="质检" style="rhombus;whiteSpace=wrap;html=1;" vertex="1" parent="haAIxIRTAm43gvG-HOPw-30">
          <mxGeometry x="450" y="21" width="120" height="40" as="geometry" />
        </mxCell>
        <mxCell id="3nuBFxr9cyL0pnOWT2aG-28" style="edgeStyle=orthogonalEdgeStyle;rounded=0;orthogonalLoop=1;jettySize=auto;html=1;" parent="3nuBFxr9cyL0pnOWT2aG-1" target="3nuBFxr9cyL0pnOWT2aG-13" edge="1">
          <mxGeometry relative="1" as="geometry">
            <Array as="points">
              <mxPoint x="530" y="260" />
              <mxPoint x="530" y="120" />
            </Array>
            <mxPoint x="475.0000000000002" y="310" as="sourcePoint" />
          </mxGeometry>
        </mxCell>
        <mxCell id="haAIxIRTAm43gvG-HOPw-3" style="edgeStyle=orthogonalEdgeStyle;rounded=0;orthogonalLoop=1;jettySize=auto;html=1;exitX=1;exitY=0.5;exitDx=0;exitDy=0;entryX=0.5;entryY=-0.082;entryDx=0;entryDy=0;entryPerimeter=0;" edge="1" parent="3nuBFxr9cyL0pnOWT2aG-1" source="haAIxIRTAm43gvG-HOPw-1" target="3nuBFxr9cyL0pnOWT2aG-17">
          <mxGeometry relative="1" as="geometry" />
        </mxCell>
        <mxCell id="haAIxIRTAm43gvG-HOPw-47" value="&lt;div&gt;同步反修请求&lt;br&gt;&lt;/div&gt;" style="edgeLabel;html=1;align=center;verticalAlign=middle;resizable=0;points=[];" vertex="1" connectable="0" parent="haAIxIRTAm43gvG-HOPw-3">
          <mxGeometry x="0.3351" y="-1" relative="1" as="geometry">
            <mxPoint x="-68" y="-1" as="offset" />
          </mxGeometry>
        </mxCell>
        <mxCell id="haAIxIRTAm43gvG-HOPw-37" style="edgeStyle=orthogonalEdgeStyle;rounded=0;orthogonalLoop=1;jettySize=auto;html=1;exitX=0.5;exitY=1;exitDx=0;exitDy=0;entryX=0.5;entryY=0;entryDx=0;entryDy=0;" edge="1" parent="3nuBFxr9cyL0pnOWT2aG-1" source="haAIxIRTAm43gvG-HOPw-23" target="8FANiOVnLKe2f4nZrA_B-1">
          <mxGeometry relative="1" as="geometry">
            <mxPoint x="670" y="411.5" as="targetPoint" />
          </mxGeometry>
        </mxCell>
        <mxCell id="haAIxIRTAm43gvG-HOPw-40" style="edgeStyle=orthogonalEdgeStyle;rounded=0;orthogonalLoop=1;jettySize=auto;html=1;entryX=0.5;entryY=1;entryDx=0;entryDy=0;exitX=0;exitY=0.5;exitDx=0;exitDy=0;" edge="1" parent="3nuBFxr9cyL0pnOWT2aG-1" source="8FANiOVnLKe2f4nZrA_B-1" target="haAIxIRTAm43gvG-HOPw-38">
          <mxGeometry relative="1" as="geometry">
            <mxPoint x="590" y="432" as="sourcePoint" />
          </mxGeometry>
        </mxCell>
        <mxCell id="haAIxIRTAm43gvG-HOPw-41" value="拒绝" style="edgeLabel;html=1;align=center;verticalAlign=middle;resizable=0;points=[];" vertex="1" connectable="0" parent="haAIxIRTAm43gvG-HOPw-40">
          <mxGeometry x="0.028" y="2" relative="1" as="geometry">
            <mxPoint x="195" as="offset" />
          </mxGeometry>
        </mxCell>
        <mxCell id="haAIxIRTAm43gvG-HOPw-43" style="edgeStyle=orthogonalEdgeStyle;rounded=0;orthogonalLoop=1;jettySize=auto;html=1;entryX=0.5;entryY=1;entryDx=0;entryDy=0;exitX=1;exitY=0.5;exitDx=0;exitDy=0;" edge="1" parent="3nuBFxr9cyL0pnOWT2aG-1" source="8FANiOVnLKe2f4nZrA_B-1" target="haAIxIRTAm43gvG-HOPw-42">
          <mxGeometry relative="1" as="geometry">
            <mxPoint x="760" y="431" as="sourcePoint" />
            <Array as="points">
              <mxPoint x="790" y="408" />
            </Array>
          </mxGeometry>
        </mxCell>
        <mxCell id="haAIxIRTAm43gvG-HOPw-44" value="通过" style="edgeLabel;html=1;align=center;verticalAlign=middle;resizable=0;points=[];" vertex="1" connectable="0" parent="haAIxIRTAm43gvG-HOPw-43">
          <mxGeometry x="0.3645" y="1" relative="1" as="geometry">
            <mxPoint x="-19" y="93" as="offset" />
          </mxGeometry>
        </mxCell>
        <mxCell id="haAIxIRTAm43gvG-HOPw-49" style="edgeStyle=orthogonalEdgeStyle;rounded=0;orthogonalLoop=1;jettySize=auto;html=1;exitX=0.5;exitY=1;exitDx=0;exitDy=0;entryX=0.5;entryY=0;entryDx=0;entryDy=0;" edge="1" parent="3nuBFxr9cyL0pnOWT2aG-1" source="3nuBFxr9cyL0pnOWT2aG-17" target="haAIxIRTAm43gvG-HOPw-17">
          <mxGeometry relative="1" as="geometry" />
        </mxCell>
        <mxCell id="8FANiOVnLKe2f4nZrA_B-4" value="Untitled Layer" parent="0" />
      </root>
    </mxGraphModel>
  </diagram>
  <diagram id="tXFem8J4mtp9v5lEU25t" name="Page-2">
    <mxGraphModel dx="968" dy="673" grid="1" gridSize="10" guides="1" tooltips="1" connect="1" arrows="1" fold="1" page="1" pageScale="1" pageWidth="827" pageHeight="1169" math="0" shadow="0">
      <root>
        <mxCell id="0" />
        <mxCell id="1" parent="0" />
      </root>
    </mxGraphModel>
  </diagram>
</mxfile>
